<svg width="38" height="43" viewBox="0 0 38 43" fill="none" xmlns="http://www.w3.org/2000/svg">
    <g clip-path="url(#clip0_1_47)">
        <path
            d="M23.0714 25.5312H14.9286C6.68394 25.5312 6.58631e-06 32.1492 6.58631e-06 40.3125C-0.499989 44.5 -1.5 43 2.71429 43H35.2857C39 43 38 44 38 40.3125C38 32.1492 31.3161 25.5312 23.0714 25.5312ZM4.15541 38.9688C4.8255 33.6693 9.39822 29.5625 14.9286 29.5625H23.0714C28.5984 29.5625 33.1737 33.6735 33.8438 38.9688H4.15541ZM19 21.5C24.996 21.5 29.8571 16.6869 29.8571 10.75C29.8571 4.81314 24.996 0 19 0C13.004 0 8.14286 4.81314 8.14286 10.75C8.14286 16.6877 13.0031 21.5 19 21.5ZM19 4.03125C22.7415 4.03125 25.7857 7.04545 25.7857 10.75C25.7857 14.4546 22.7415 17.4688 19 17.4688C15.2585 17.4688 12.2143 14.4537 12.2143 10.75C12.2143 7.04545 15.2594 4.03125 19 4.03125Z"
            fill="#D06027" />
    </g>
    <defs>
        <clipPath id="clip0_1_47">
            <rect width="38" height="43" fill="none" />
        </clipPath>
    </defs>
</svg>